<?xml version="1.0" standalone="no"?>
<!DOCTYPE svg PUBLIC "-//W3C//DTD SVG 20010904//EN"
 "http://www.w3.org/TR/2001/REC-SVG-20010904/DTD/svg10.dtd">
<svg version="1.0" xmlns="http://www.w3.org/2000/svg"
 width="512.000000pt" height="512.000000pt" viewBox="0 0 512.000000 512.000000"
 preserveAspectRatio="xMidYMid meet">
<metadata>
Created by potrace 1.11, written by Peter Selinger 2001-2013
</metadata>
<g transform="translate(0.000000,512.000000) scale(0.100000,-0.100000)"
fill="#000000" stroke="none">
<path d="M2270 5105 c-152 -19 -172 -23 -310 -56 -105 -25 -263 -72 -320 -96
-8 -3 -17 -7 -20 -8 -59 -22 -97 -40 -216 -99 -77 -39 -168 -89 -202 -111 -77
-49 -260 -184 -310 -228 -47 -41 -226 -220 -272 -272 -152 -171 -310 -423
-405 -645 -20 -47 -40 -94 -45 -105 -12 -28 -59 -166 -65 -190 -2 -11 -14 -54
-25 -95 -11 -41 -22 -84 -24 -95 -21 -112 -30 -166 -41 -260 -28 -228 -5 -655
45 -845 5 -19 11 -44 13 -55 15 -80 85 -288 142 -418 186 -424 487 -792 872
-1064 82 -58 104 -72 198 -126 246 -143 571 -259 840 -302 259 -41 610 -43
835 -6 266 44 494 117 740 234 70 34 259 146 325 194 33 23 71 51 85 60 73 52
256 220 334 305 93 101 247 301 273 353 9 16 21 37 28 45 7 8 26 40 43 70 176
323 273 621 316 975 16 126 18 430 5 555 -75 711 -441 1362 -1004 1784 -98 74
-259 177 -340 219 -271 140 -534 226 -840 272 -144 23 -511 28 -655 10z"/>
</g>
</svg>
